<svg width="800" height="800" viewBox="0 0 800 800" fill="none" xmlns="http://www.w3.org/2000/svg">
<path d="M100 341.139L124.907 338.986C123.754 325.647 112.298 315.585 98.9223 316.163C85.5467 316.74 75 327.751 75 341.139H100ZM674.537 401.913L651.02 537.903L700.29 546.426L723.807 410.433L674.537 401.913ZM441.5 708.332H286.545V758.332H441.5V708.332ZM256.166 680.416L229.094 367.326L179.28 371.633L206.352 684.722L256.166 680.416ZM651.02 537.903C634.127 635.589 546.043 708.332 441.5 708.332V758.332C569.04 758.332 679.027 669.366 700.29 546.426L651.02 537.903ZM441.827 170.004L419.737 304.823L469.08 312.908L491.17 178.089L441.827 170.004ZM239.591 341.519L287.549 300.194L254.91 262.317L206.952 303.644L239.591 341.519ZM374.8 165.735L390.657 104.606L342.26 92.0515L326.403 153.18L374.8 165.735ZM414.607 92.6128L419.44 94.1652L434.733 46.5615L429.9 45.0092L414.607 92.6128ZM350.783 227.199C361.18 207.732 369.257 187.112 374.8 165.735L326.403 153.18C321.858 170.701 315.233 187.63 306.681 203.641L350.783 227.199ZM419.44 94.1652C429.653 97.4465 436.907 105.336 439.29 114.527L487.69 101.973C480.84 75.5722 460.633 54.8818 434.733 46.5615L419.44 94.1652ZM390.657 104.606C391.827 100.106 395.077 95.9702 399.993 93.6005L378.287 48.5575C360.553 57.1022 347.233 72.8748 342.26 92.0515L390.657 104.606ZM399.993 93.6005C404.483 91.4362 409.77 91.0595 414.607 92.6128L429.9 45.0092C412.91 39.5508 394.373 40.8058 378.287 48.5575L399.993 93.6005ZM471.79 366.139H644.493V316.139H471.79V366.139ZM157.294 713.536L124.907 338.986L75.093 343.293L107.48 717.842L157.294 713.536ZM125 717.089V341.139H75V717.089H125ZM107.48 717.842C107.04 712.759 111.049 708.332 116.224 708.332V758.332C140.423 758.332 159.374 737.596 157.294 713.536L107.48 717.842ZM491.17 178.089C495.32 152.751 494.137 126.825 487.69 101.973L439.29 114.527C443.99 132.64 444.853 151.537 441.827 170.004L491.17 178.089ZM286.545 708.332C270.748 708.332 257.534 696.232 256.166 680.416L206.352 684.722C209.951 726.339 244.757 758.332 286.545 758.332V708.332ZM287.549 300.194C310.211 280.666 334.64 257.421 350.783 227.199L306.681 203.641C295.135 225.255 276.75 243.497 254.91 262.317L287.549 300.194ZM723.807 410.433C732.317 361.216 694.47 316.139 644.493 316.139V366.139C663.38 366.139 677.773 383.196 674.537 401.913L723.807 410.433ZM116.224 708.332C121.097 708.332 125 712.279 125 717.089H75C75 739.842 93.4297 758.332 116.224 758.332V708.332ZM419.737 304.823C414.48 336.919 439.22 366.139 471.79 366.139V316.139C470.127 316.139 468.797 314.633 469.08 312.908L419.737 304.823ZM229.094 367.326C228.247 357.526 232.158 347.926 239.591 341.519L206.952 303.644C187.341 320.543 177.05 345.843 179.28 371.633L229.094 367.326Z" fill="white"/>
</svg>
