<svg width="800" height="800" viewBox="0 0 800 800" fill="none" xmlns="http://www.w3.org/2000/svg">
<path d="M466.667 133.333C466.667 170.152 436.821 199.999 400.001 199.999C363.181 199.999 333.334 170.152 333.334 133.333C333.334 96.5137 363.181 66.666 400.001 66.666C436.821 66.666 466.667 96.5137 466.667 133.333Z" stroke="white" stroke-width="50"/>
<path d="M399.999 499.989L421.706 487.586C417.256 479.799 408.969 474.989 399.999 474.989C391.029 474.989 382.743 479.799 378.293 487.586L399.999 499.989ZM344.846 310.735C358.576 312.185 370.883 302.23 372.333 288.499C373.783 274.769 363.829 262.462 350.099 261.011L344.846 310.735ZM449.899 261.011C436.169 262.462 426.216 274.769 427.666 288.499C429.116 302.23 441.423 312.185 455.153 310.735L449.899 261.011ZM193.687 385.349L266.197 409.519L282.008 362.086L209.498 337.916L193.687 385.349ZM277.226 432.893L235.667 540.946L282.334 558.896L323.894 450.839L277.226 432.893ZM590.499 337.916L517.989 362.086L533.803 409.519L606.313 385.349L590.499 337.916ZM476.106 450.839L517.666 558.896L564.333 540.946L522.773 432.893L476.106 450.839ZM369.179 604.316L421.706 512.393L378.293 487.586L325.766 579.509L369.179 604.316ZM566.313 238.784L503.059 252.338L513.536 301.229L576.789 287.675L566.313 238.784ZM296.938 252.339L233.686 238.784L223.21 287.675L286.462 301.229L296.938 252.339ZM378.293 512.393L430.819 604.316L474.233 579.509L421.706 487.586L378.293 512.393ZM503.059 252.338C499.509 253.099 497.853 253.455 496.216 253.793L506.343 302.757C508.193 302.374 510.053 301.975 513.536 301.229L503.059 252.338ZM286.462 301.229C289.946 301.975 291.805 302.374 293.656 302.757L303.784 253.793C302.147 253.455 300.489 253.099 296.938 252.339L286.462 301.229ZM304.835 641.656C331.428 641.656 355.983 627.406 369.179 604.316L325.766 579.509C321.473 587.023 313.486 591.656 304.835 591.656V641.656ZM517.666 558.896C523.739 574.686 512.083 591.656 495.163 591.656V641.656C547.173 641.656 583.003 589.486 564.333 540.946L517.666 558.896ZM517.989 362.086C510.593 364.553 502.719 366.999 496.326 370.943L522.589 413.493C522.293 413.673 522.543 413.456 524.473 412.726C526.499 411.959 529.233 411.043 533.803 409.519L517.989 362.086ZM522.773 432.893C521.043 428.396 520.013 425.703 519.316 423.649C518.653 421.699 518.663 421.369 518.709 421.713L469.169 428.486C470.189 435.929 473.306 443.563 476.106 450.839L522.773 432.893ZM496.326 370.943C476.689 383.066 466.046 405.623 469.169 428.486L518.709 421.713C518.263 418.446 519.783 415.223 522.589 413.493L496.326 370.943ZM608.333 313.175C608.333 324.4 601.149 334.366 590.499 337.916L606.313 385.349C637.379 374.996 658.333 345.923 658.333 313.175H608.333ZM235.667 540.946C216.997 589.486 252.827 641.656 304.835 641.656V591.656C287.916 591.656 276.261 574.686 282.334 558.896L235.667 540.946ZM266.197 409.519C270.766 411.043 273.5 411.959 275.527 412.726C277.456 413.456 277.704 413.673 277.409 413.493L303.673 370.943C297.28 366.999 289.406 364.553 282.008 362.086L266.197 409.519ZM323.894 450.839C326.693 443.563 329.81 435.929 330.828 428.486L281.289 421.713C281.336 421.369 281.346 421.696 280.683 423.649C279.986 425.703 278.956 428.396 277.226 432.893L323.894 450.839ZM277.409 413.493C280.215 415.223 281.735 418.446 281.289 421.713L330.828 428.486C333.953 405.623 323.309 383.066 303.673 370.943L277.409 413.493ZM141.666 313.175C141.666 345.923 162.62 374.996 193.687 385.349L209.498 337.916C198.849 334.366 191.666 324.4 191.666 313.175H141.666ZM191.666 313.175C191.666 296.572 206.975 284.196 223.21 287.675L233.686 238.784C186.326 228.636 141.666 264.739 141.666 313.175H191.666ZM430.819 604.316C444.016 627.406 468.569 641.656 495.163 641.656V591.656C486.513 591.656 478.526 587.023 474.233 579.509L430.819 604.316ZM658.333 313.175C658.333 264.739 613.673 228.636 566.313 238.784L576.789 287.675C593.023 284.196 608.333 296.572 608.333 313.175H658.333ZM350.099 261.011C334.579 259.372 319.123 256.966 303.784 253.793L293.656 302.757C310.61 306.263 327.694 308.923 344.846 310.735L350.099 261.011ZM496.216 253.793C480.876 256.966 465.419 259.372 449.899 261.011L455.153 310.735C472.306 308.923 489.389 306.263 506.343 302.757L496.216 253.793Z" fill="white"/>
<path d="M648.456 500C701.239 526.537 733.333 561.583 733.333 600C733.333 624.947 719.799 648.47 695.859 669.163M151.543 500C98.761 526.537 66.666 561.583 66.666 600C66.666 682.843 215.904 750 399.999 750C460.713 750 517.636 742.697 566.666 729.933" stroke="white" stroke-width="50" stroke-linecap="round"/>
</svg>
