<svg width="800" height="800" viewBox="0 0 800 800" fill="none" xmlns="http://www.w3.org/2000/svg">
<path d="M400 633.334C455.228 633.334 500 588.562 500 533.334C500 478.106 455.228 433.334 400 433.334C344.772 433.334 300 478.106 300 533.334C300 588.562 344.772 633.334 400 633.334Z" stroke="white" stroke-width="50"/>
<path d="M400 641.996L324.571 714.31C313.769 724.666 308.367 729.843 303.793 731.636C293.37 735.72 281.808 732.223 276.326 723.333C273.919 719.433 273.17 712.396 271.67 698.32C270.823 690.376 270.4 686.403 269.115 683.073C266.238 675.623 260.193 669.826 252.422 667.07C248.951 665.836 244.807 665.433 236.518 664.62C221.837 663.183 214.497 662.463 210.428 660.156C201.154 654.9 197.51 643.816 201.769 633.823C203.638 629.44 209.039 624.26 219.841 613.903L269.115 566.663L303.793 531.986" stroke="white" stroke-width="50"/>
<path d="M400 641.997L475.43 714.313C486.23 724.67 491.633 729.847 496.207 731.64C506.63 735.723 518.19 732.227 523.673 723.337C526.08 719.437 526.83 712.4 528.33 698.323C529.177 690.377 529.6 686.403 530.883 683.077C533.763 675.627 539.807 669.83 547.577 667.073C551.05 665.84 555.193 665.437 563.483 664.623C578.163 663.187 585.503 662.467 589.573 660.16C598.847 654.903 602.49 643.82 598.23 633.827C596.363 629.44 590.96 624.263 580.16 613.907L530.883 566.667L500 535.783" stroke="white" stroke-width="50"/>
<path d="M577.323 599.856C643.069 599.159 679.716 595.039 704.043 570.709C733.333 541.419 733.333 494.279 733.333 399.999V299.999M233.333 599.943C160.832 599.539 121.568 596.323 95.9553 570.709C66.666 541.419 66.666 494.279 66.666 399.999V266.666C66.666 172.385 66.666 125.245 95.9553 95.9553C125.245 66.666 172.385 66.666 266.666 66.666H533.333C627.613 66.666 674.753 66.666 704.043 95.9553C720.373 112.285 727.599 134.163 730.796 166.666" stroke="white" stroke-width="50" stroke-linecap="round"/>
<path d="M300 200H500" stroke="white" stroke-width="50" stroke-linecap="round"/>
<path d="M233.334 316.666H300.001M566.667 316.666H416.667" stroke="white" stroke-width="50" stroke-linecap="round"/>
</svg>
