<svg width="800" height="800" viewBox="0 0 800 800" fill="none" xmlns="http://www.w3.org/2000/svg">
<path d="M300 466.666H400" stroke="white" stroke-width="50" stroke-linecap="round"/>
<path d="M333.333 400.001V273.334C333.333 267.141 333.333 264.044 333.743 261.453C336.003 247.19 347.19 236.003 361.453 233.744C364.043 233.334 367.14 233.334 373.333 233.334H450C496.023 233.334 533.333 270.644 533.333 316.667C533.333 362.691 496.023 400.001 450 400.001H333.333ZM333.333 400.001V566.667M333.333 400.001H300" stroke="white" stroke-width="50" stroke-linecap="round"/>
<path d="M233.333 111.26C282.362 82.8984 339.286 66.666 399.999 66.666C584.093 66.666 733.333 215.904 733.333 399.999C733.333 584.093 584.093 733.333 399.999 733.333C215.904 733.333 66.666 584.093 66.666 399.999C66.666 339.286 82.8984 282.362 111.26 233.333" stroke="white" stroke-width="50" stroke-linecap="round"/>
</svg>
