<svg width="800" height="800" viewBox="0 0 800 800" fill="none" xmlns="http://www.w3.org/2000/svg">
<path d="M616.667 300.001H550.001M550.001 300.001H483.334M550.001 300.001V233.334M550.001 300.001V366.667" stroke="white" stroke-width="50" stroke-linecap="round"/>
<path d="M399.999 185.804L381.739 202.878C386.466 207.934 393.076 210.804 399.999 210.804C406.923 210.804 413.533 207.934 418.259 202.878L399.999 185.804ZM88.3857 456.07C95.531 467.886 110.901 471.67 122.715 464.526C134.53 457.38 138.315 442.01 131.169 430.196L88.3857 456.07ZM217.91 539.023C208.278 529.13 192.45 528.92 182.558 538.553C172.666 548.183 172.456 564.013 182.088 573.903L217.91 539.023ZM91.666 310.583C91.666 213.763 133.921 153.91 186.2 133.439C238.363 113.014 311.346 127.592 381.739 202.878L418.259 168.729C338.659 83.5944 244.974 56.7287 167.969 86.8814C91.08 116.989 41.666 199.736 41.666 310.583H91.666ZM517.029 665.366C566.776 624.996 626.379 570.893 673.756 510.466C720.653 450.653 758.333 381.18 758.333 310.582H708.333C708.333 364.296 679.023 422.713 634.409 479.613C590.279 535.9 533.853 587.323 485.523 626.543L517.029 665.366ZM758.333 310.582C758.333 199.736 708.919 116.988 632.029 86.8814C555.026 56.7287 461.339 83.5944 381.739 168.729L418.259 202.878C488.653 127.592 561.636 113.014 613.799 133.439C666.076 153.91 708.333 213.762 708.333 310.582H758.333ZM282.971 665.366C325.352 699.76 354.743 725 399.999 725V675C375.903 675 360.896 664.21 314.477 626.543L282.971 665.366ZM485.523 626.543C439.103 664.21 424.096 675 399.999 675V725C445.256 725 474.646 699.76 517.029 665.366L485.523 626.543ZM131.169 430.196C106.27 389.026 91.666 348.5 91.666 310.583H41.666C41.666 360.99 60.8814 410.596 88.3857 456.07L131.169 430.196ZM314.477 626.543C283.91 601.736 249.964 571.94 217.91 539.023L182.088 573.903C215.849 608.573 251.331 639.693 282.971 665.366L314.477 626.543Z" fill="white"/>
</svg>
